<svg width="3852" height="2167" viewBox="0 0 3852 2167" fill="none" xmlns="http://www.w3.org/2000/svg">
<path fill-rule="evenodd" clip-rule="evenodd" d="M152.976 208.996L233.172 178.92L792.779 405.385L881.242 441.497L920.119 457.409L967.41 476.802C1016.38 496.962 1068.19 518.678 1118.7 541.972C1125.8 545.245 1132.88 548.554 1139.94 551.899C1168.59 565.596 1196.29 580.178 1222.96 595.599C1249.12 610.718 1274.18 626.675 1298.08 643.415C1344.95 676.4 1390.24 714.032 1436.52 758.457C1464.9 785.699 1493.08 814.061 1520.64 842.042L1541.18 862.934C1548.99 870.886 1556.8 878.842 1564.63 886.784L1572.17 894.387C1617.22 939.587 1659.24 976.876 1700.38 1008.19C1748.89 1045.14 1801.62 1075.53 1857.2 1098.61L1863.06 1101.01C1920.8 1124.38 1987.49 1142.24 2061.28 1154.09C2125.96 1164.49 2196.97 1171.98 2284.78 1177.67L2361.46 1182.61C2412.26 1185.9 2463.88 1189.4 2514.12 1193.61C2594.41 1200.35 2665.38 1209.8 2731.08 1222.49C2796.98 1235.29 2862.81 1252.87 2926.74 1274.73C2982.77 1294.04 3037.59 1315.16 3089.16 1335.57L3108.66 1343.32C3162.64 1364.85 3216.48 1386.45 3270.24 1408.03L3832.37 1635.45L3830.76 1697.34L3245.82 1460.62C3220.19 1450.33 3194.52 1440.03 3168.83 1429.73L3108.42 1405.55L3067.6 1389.24L3053.97 1383.82C2993.21 1359.77 2940.29 1339.73 2884.52 1321.43C2819.68 1300.3 2751.84 1284.04 2682.9 1273.11C2616.29 1262.55 2542.97 1255.11 2458.74 1250.38C2420.58 1248.23 2381.64 1246.4 2343.24 1244.67L2270.46 1241.44L2224.76 1239.35C2214.18 1238.85 2203.6 1238.3 2193.03 1237.7C2120.25 1233.53 2056.92 1227.33 2000.24 1218.81C1928.86 1208.1 1864.43 1191.48 1808.65 1169.41L1803.17 1167.21C1746.79 1144.29 1693.56 1113.33 1644.93 1075.2C1601.73 1041.31 1558.46 1000.93 1512.62 951.733C1502.53 940.893 1492.47 930.036 1482.45 919.163L1448.04 881.805C1428.52 860.653 1408.63 839.251 1388.74 818.43C1343.22 770.796 1299.44 730.844 1254.89 696.292C1208.68 660.455 1156.27 627.817 1099.1 599.283C1042.54 571.252 982.86 546.016 926.797 522.919C884.001 505.322 841.215 487.831 798.503 470.391L751.866 451.359L152.971 208.996H152.976ZM324.003 144.822L838.847 353.172C882.439 370.948 926.128 388.759 969.852 406.656L1013.58 424.585C1065.98 446.112 1127.57 471.766 1186.96 498.815C1245.84 525.774 1300.43 555.093 1349.21 585.962C1398.77 617.444 1447.62 653.598 1494.4 693.433C1533.46 726.689 1571.94 761.909 1609.41 796.553L1628.83 814.532C1680.13 862.048 1724.64 899.056 1768.92 930.988C1818.31 966.614 1871.37 996.29 1926.75 1019.27L1933.11 1021.88C1990.81 1045.21 2056.91 1063.68 2129.55 1076.78C2192.13 1088.06 2261.72 1097.13 2348.56 1105.33L2380.11 1108.31C2443.46 1114.32 2508.16 1120.69 2571.37 1128.52C2645.92 1137.75 2716.66 1150.03 2781.59 1165.01C2846.23 1180 2909.03 1198.52 2973.55 1221.65C3037.04 1244.47 3098.04 1268.45 3154.5 1290.97L3202.11 1310.02C3227.48 1320.17 3252.83 1330.33 3278.15 1340.49L3326.71 1359.98L3508.34 1433.47L3834.09 1565.3L3832.48 1627.18L3351.84 1432.67L3346.53 1430.52C3328.43 1423.2 3310.36 1415.89 3292.24 1408.55C3252.69 1392.67 3213.12 1376.79 3173.5 1360.93L3113.65 1337.02L3094.43 1329.38C3042.73 1308.92 2987.76 1287.74 2931.47 1268.35C2866.97 1246.29 2800.51 1228.55 2733.94 1215.62C2667.72 1202.82 2596.22 1193.3 2515.38 1186.52C2458.75 1181.76 2400.44 1177.92 2343.5 1174.26L2285.75 1170.56C2198.44 1164.9 2127.89 1157.46 2063.68 1147.13C1992.97 1135.75 1928.91 1118.82 1873.2 1096.78L1867.45 1094.47C1811 1071.52 1757.45 1040.9 1708.3 1003.47C1665.1 970.573 1621 931.117 1573.44 882.84L1561.71 870.918L1550 858.997C1515.95 824.334 1480.74 788.49 1445.19 754.359C1398.59 709.645 1352.97 671.742 1305.71 638.475C1282.89 622.506 1259.02 607.246 1234.15 592.74C1205.9 576.213 1176.48 560.629 1145.98 546.045C1138.81 542.646 1131.61 539.278 1124.37 535.944C1073.47 512.471 1021.74 490.801 972.927 470.716L965.885 467.832C939.486 456.989 913.069 446.165 886.634 435.361L797.95 399.153L243.807 174.905L324.003 144.822V144.822ZM414.903 110.727L884.972 300.951C928.591 318.724 972.295 336.528 1016.04 354.414L1075.93 378.95C1121.64 397.754 1178.05 421.248 1233.97 445.773C1267.83 460.729 1299.5 475.72 1329.55 490.998L1341.53 497.108L1344.44 498.643C1363.53 508.588 1382.01 518.664 1399.93 528.955C1451.47 558.581 1502.69 592.108 1552.17 628.613C1563.76 637.184 1575.23 645.829 1586.59 654.544L1595.18 661.166C1620.98 681.133 1647.11 702.082 1675.35 725.087L1698.5 744.004L1702.46 747.235C1754.01 789.197 1798.07 822.135 1840.46 850.434C1848.64 855.888 1856.97 861.239 1865.45 866.485L1871.76 870.376C1874.66 872.153 1877.55 873.981 1880.47 875.726L1885.28 878.518C1922.38 900.391 1960.7 919.602 1999.79 935.814L2006.77 938.669C2064.37 961.971 2129.64 981.288 2200.74 996.101C2211.93 998.436 2223.41 1000.72 2235.24 1002.98L2244.64 1004.76C2292.02 1013.61 2344.93 1021.98 2407.39 1030.52L2413.67 1031.38C2482.82 1040.76 2556.71 1051.15 2628.42 1063.56C2637.34 1065.11 2646.22 1066.7 2655.05 1068.33C2716.82 1079.74 2776.16 1093.03 2831.78 1107.92C2893.62 1124.56 2955.3 1144.41 3020.34 1168.59C3054.32 1181.3 3088.41 1194.42 3122 1207.46L3168.72 1225.64L3201.06 1238.24L3835.98 1495.19L3834.39 1557.07L3338.54 1356.4L3283.55 1334.35C3258.22 1324.18 3232.84 1314.02 3207.45 1303.86C3191.59 1297.51 3175.79 1291.15 3159.89 1284.8L3140.87 1277.24C3089.72 1256.93 3035.14 1235.68 2978.53 1215.32C2913.52 1192.02 2850.23 1173.35 2785.04 1158.24C2719.61 1143.14 2648.37 1130.78 2573.3 1121.48C2504.63 1112.98 2434.29 1106.2 2365.82 1099.73L2350.06 1098.24C2263.64 1090.09 2194.45 1081.07 2132.31 1069.86C2060.62 1056.94 1995.44 1038.73 1938.57 1015.73L1937.23 1015.19C1880.87 992.271 1826.86 962.302 1776.65 926.091C1734.82 895.919 1692.74 861.156 1644.81 817.152L1637.02 809.971L1618.3 792.627C1580.66 757.825 1542 722.435 1502.7 688.971C1455.56 648.84 1406.35 612.429 1356.45 580.736C1307.26 549.607 1252.24 520.049 1192.91 492.879C1133.88 465.987 1074.49 441.222 1019.09 418.464C976.367 400.916 933.655 383.473 891.017 366.075L844.122 346.954L334.712 140.806L414.903 110.727V110.727ZM425.579 106.729L505.781 76.6461L1106.28 319.669L1131.47 330.21L1187.45 353.589C1218.64 366.602 1249.75 379.706 1280.77 392.899C1344.16 420.109 1399.51 446.191 1450.01 472.622C1502.86 500.303 1556.25 531.439 1608.71 565.156L1617.57 570.888C1666.19 602.467 1712.55 634.713 1749.58 660.862L1772.81 677.281C1811.89 704.773 1860.85 738.322 1912.3 769.615C1922.24 775.643 1932.33 781.556 1942.57 787.351C1985.34 811.705 2029.12 833.229 2073.19 851.462L2081.12 854.72C2138.39 877.897 2202.66 898.221 2272.16 915.14C2337.65 931.088 2404.76 944.466 2459.24 954.796L2494.49 961.435C2570.56 975.795 2629.63 987.813 2684.25 1000.02C2753.13 1015.44 2819.46 1032.77 2881.38 1051.52C2940.09 1069.41 3000.81 1090.4 3067.03 1115.72C3098.24 1127.73 3129.73 1140.03 3160.69 1152.16L3228.64 1178.8C3234.84 1181.23 3241.02 1183.65 3247.2 1186.06L3837.76 1425.06L3836.17 1486.93L3206.44 1232.08L3172.63 1218.93L3140.37 1206.36C3102.5 1191.62 3063.9 1176.72 3025.42 1162.34C2959.88 1137.97 2897.81 1118 2835.66 1101.28C2827.67 1099.14 2819.6 1097.03 2811.45 1094.96C2754.43 1080.44 2693.87 1067.58 2631.04 1056.65C2583.07 1048.35 2534.2 1040.97 2486.4 1034.17C2470.46 1031.91 2454.63 1029.7 2439.01 1027.55L2409.2 1023.48L2396.5 1021.73C2335.76 1013.25 2284.27 1004.93 2238.17 996.123C2226.41 993.878 2215 991.597 2203.85 989.273C2133.48 974.61 2069 955.524 2012.18 932.544L2010.81 931.987C1954.51 909.097 1899.69 879.953 1847.87 845.354L1841.68 841.196C1800.36 813.258 1757.11 780.666 1706.45 739.307L1692.64 728.017C1644.8 688.932 1603.32 655.833 1559.94 623.79C1510.19 587.075 1458.65 553.337 1406.76 523.515C1397.85 518.407 1388.86 513.371 1379.77 508.409L1368 502.02C1359.14 497.283 1350.2 492.61 1341.19 488.003C1309.39 471.698 1275.8 455.721 1239.72 439.787L1229.76 435.433C1170 409.372 1110.81 384.897 1065.26 366.222C1006.9 342.292 948.578 318.534 890.247 294.769L425.579 106.726V106.729ZM596.649 42.5725L1152.41 267.488L1188.98 282.687L1225.6 297.871C1259.54 311.931 1293.49 326.009 1327.4 340.204L1339.14 345.151C1401.04 371.347 1452.21 394.32 1499.34 417.075C1554.03 443.489 1609.28 472.569 1663.58 503.515L1672.82 508.798C1725.07 538.781 1775.29 569.271 1814.92 593.604L1835.41 606.182C1876.3 631.229 1927.62 662.037 1981.56 691.691C2036.07 721.656 2089.25 747.242 2143.83 769.736L2151.83 773.009L2153.01 773.488C2210.8 796.867 2272.28 817.663 2340.94 837.059L2352.16 840.204C2413.89 857.415 2476 872.796 2526.2 884.9L2562.23 893.573C2613.82 906.045 2676.63 921.572 2738.49 938.252C2805.04 956.206 2869.56 975.624 2930.23 995.966L2940.08 999.285C2992.75 1017.16 3048.18 1037.53 3113.52 1063.02C3136.68 1072.09 3159.8 1081.2 3182.9 1090.32L3217.54 1104C3242.81 1113.99 3268.06 1123.98 3293.28 1133.89L3839.59 1354.98L3838 1416.84L3252.57 1179.91L3225.44 1169.29L3151.44 1140.27C3125.17 1129.99 3098.62 1119.65 3072.25 1109.5C3005.75 1084.07 2944.74 1062.98 2885.73 1045C2823.49 1026.15 2756.82 1008.73 2687.59 993.231L2676.13 990.69C2611.15 976.377 2546.41 963.802 2494.26 953.968L2461.57 947.811C2407.21 937.488 2340.46 924.167 2275.76 908.419C2209.3 892.239 2147.67 872.914 2092.45 850.951L2084.64 847.81C2028.65 825.044 1973.06 796.957 1919.39 764.307C1867.95 732.993 1819.22 699.612 1780.38 672.281L1750.83 651.41C1712.6 624.468 1665.32 591.737 1616 559.976C1563.27 526.081 1509.6 494.788 1456.5 466.968C1405.9 440.473 1350.28 414.266 1286.43 386.856C1250.31 371.465 1213.58 356.088 1177.69 341.104L1162.36 334.707C1145.52 327.672 1128.67 320.644 1111.79 313.569L516.479 72.6376L596.654 42.5725H596.649ZM687.506 8.4882L1374.69 286.581C1388.87 292.806 1403.08 299.005 1417.31 305.178L1438.68 314.44C1474.59 330.003 1511.74 346.101 1547.9 362.395C1599.96 385.868 1653.15 411.403 1706.13 438.384L1716.72 443.799C1767.18 469.685 1816.93 496.412 1858.13 518.821L1899.49 541.369C1941.62 564.285 1993.39 592.019 2046.44 618.697C2105.57 648.458 2162.53 674.376 2220.15 697.656C2277.93 721.039 2338.54 742.723 2405.42 763.94L2416.34 767.388C2470.93 784.557 2525.67 800.608 2571.73 813.844L2624.2 828.853C2689.91 847.699 2742.21 863.226 2791.14 878.386C2856.25 898.638 2919.28 919.777 2978.46 941.225C3007.21 951.648 3036.08 962.449 3064.45 973.146L3126.76 996.669C3138.13 1000.94 3149.48 1005.2 3160.82 1009.43L3841.34 1284.83L3839.75 1346.69L3298.7 1127.73L3261.5 1113.07L3224.32 1098.38C3200.91 1089.13 3177.49 1079.88 3154.04 1070.65L3118.82 1056.82L3106.64 1052.09C3042.28 1027.15 2987.44 1007.18 2934.96 989.566C2874.25 969.202 2809.47 949.706 2742.42 931.613L2731.33 928.636C2672.17 912.841 2613.53 898.367 2565.08 886.66L2515.86 874.806C2465.35 862.545 2404.69 847.321 2345.03 830.466C2280.6 812.269 2220.17 791.97 2165.29 770.097L2156.12 766.41C2101.84 744.336 2049.03 719.243 1995 689.839L1988.24 686.141C1945.62 662.711 1901.04 636.669 1845.5 602.713L1806.83 578.998C1767.08 554.704 1719.08 525.792 1670.41 498.054C1615.71 466.89 1560.23 437.688 1505.5 411.253L1496.59 406.974C1448.8 384.126 1396.51 360.846 1332.99 334.129C1310.38 324.673 1287.75 315.247 1265.09 305.852L1231.15 291.778C1206.72 281.659 1182.32 271.547 1157.91 261.381L607.331 38.5569L687.506 8.4882V8.4882ZM3828.84 1767.38L3200.22 1512.97L3157.86 1496C3127.58 1483.85 3097.29 1471.71 3066.97 1459.58L3021.45 1441.4L3009.73 1436.75C2958.37 1416.4 2899.44 1393.73 2837.59 1374.37C2773 1354.36 2703.93 1339.45 2632.31 1330.04C2565.26 1321.24 2490.66 1315.29 2404.24 1311.83C2377.15 1310.74 2349.63 1309.77 2322.46 1308.84L2255.45 1306.58C2226.42 1305.59 2197.03 1304.54 2168.12 1303.36C2082.23 1299.85 2008.54 1293.4 1942.85 1283.65C1869.39 1272.75 1803.37 1255.58 1746.62 1232.62L1745.48 1232.15C1689.16 1209.25 1636.02 1178.27 1587.57 1140.04C1543.79 1105.51 1500.76 1064.87 1456.03 1015.79C1437.11 995.066 1418.16 973.821 1399.66 953.018L1371.95 921.868C1359.51 907.886 1346.99 893.935 1334.4 880.017C1289.5 830.459 1247.03 789.065 1204.57 753.467C1158.93 715.206 1107.7 681.204 1052.3 652.388C996.254 623.405 936.714 598.098 880.72 575.057C841.417 558.922 802.081 542.824 762.712 526.763L705.763 503.526L62.124 243.052L142.257 212.998L746.386 457.474L750.321 459.08C807.191 482.288 864.225 505.554 921.269 529.015L938.999 536.343C989.534 557.306 1042.39 580.036 1092.8 605.033C1149.15 633.144 1200.82 665.317 1246.9 700.986C1291.06 735.213 1334.55 774.898 1379.83 822.299C1399.84 843.238 1419.84 864.772 1439.48 886.053L1458.99 907.219C1473.84 923.353 1488.7 939.49 1503.66 955.542L1511.11 963.491C1554.48 1009.42 1595.71 1047.55 1636.9 1079.86C1684.9 1117.53 1737.39 1148.31 1793 1171.4L1798.69 1173.73C1856.46 1197.1 1923.49 1214.61 1997.91 1225.79C2055.05 1234.36 2118.84 1240.62 2192.09 1244.8C2202.56 1245.4 2213.22 1245.96 2224.08 1246.47L2269.89 1248.57L2342.73 1251.81C2381.01 1253.53 2419.81 1255.35 2457.83 1257.49C2541.53 1262.19 2614.36 1269.58 2680.45 1280.05C2748.73 1290.9 2815.83 1306.98 2879.87 1327.86C2937.2 1346.64 2991.81 1367.44 3055.36 1392.67L3081.16 1402.95L3124.76 1420.38L3171.91 1439.28C3195.3 1448.67 3218.35 1457.93 3240.77 1466.94L3830.44 1705.58L3828.85 1767.38H3828.84ZM3828.19 1799.37L3778.7 1817.93L3154.08 1565.15L3129.25 1555.18C3095.13 1541.48 3060.99 1527.76 3026.79 1514.07L2975.46 1493.54C2921.27 1471.93 2857.84 1447.21 2790.85 1427.19C2727.25 1408.33 2657.25 1394.46 2582.79 1385.97C2515.93 1378.34 2440.64 1373.19 2352.61 1370.22C2336.12 1369.67 2319.61 1369.14 2303.1 1368.63L2238.03 1366.6C2197.51 1365.31 2156.43 1363.91 2116.19 1362.17C2031.38 1358.5 1957.96 1351.75 1891.75 1341.56C1820.72 1330.6 1756.44 1313.86 1700.63 1291.78L1694.83 1289.45C1638.46 1266.53 1585.16 1235.74 1536.39 1197.93C1491.94 1163.48 1448.65 1123.14 1404.02 1074.61C1374.98 1043.03 1346.1 1010.27 1318.18 978.575C1306.39 965.19 1294.6 951.815 1282.77 938.491C1237.74 887.784 1195.99 845.615 1155.12 809.589C1109.44 769.347 1059.15 734.278 1005.62 705.348C950.709 675.882 890.996 650.379 834.642 627.217C793.746 610.437 752.814 593.698 711.845 576.999L659.659 555.725L28.8176 300.43L29.9779 255.117L51.3949 247.078L700.266 509.666L705.009 511.6C761.61 534.694 818.369 557.86 875.165 581.179C931.059 604.187 990.414 629.426 1045.81 658.074C1100.54 686.541 1151.18 720.154 1196.28 757.979C1238.43 793.316 1280.65 834.457 1325.34 883.765C1337.84 897.56 1350.41 911.613 1362.82 925.541L1399.8 967.121C1415.39 984.657 1431.11 1002.14 1446.97 1019.56C1492.11 1069.06 1535.45 1109.99 1579.48 1144.71C1627.43 1182.51 1679.92 1213.36 1735.59 1236.49L1741.14 1238.76C1798.92 1262.13 1866 1279.58 1940.52 1290.64C2006.71 1300.47 2080.94 1306.97 2167.42 1310.51C2202.08 1311.92 2237.42 1313.14 2272 1314.31L2321.66 1315.99C2348.88 1316.92 2376.44 1317.89 2403.56 1318.98C2489.53 1322.42 2563.68 1328.34 2630.24 1337.07C2701.15 1346.39 2769.41 1361.12 2833.11 1380.88C2892.97 1399.62 2949.53 1421.09 3016.04 1447.58C3075.55 1471.31 3134.9 1495.14 3194.14 1518.93L3828.81 1775.77L3828.19 1799.37V1799.37ZM3687.7 1852L3107.82 1617.34C3048.35 1593.39 2988.83 1569.5 2929.25 1545.67L2915.99 1540.38C2862.65 1519.18 2805.64 1497.46 2744.18 1479.77C2681.09 1461.75 2610.54 1448.51 2534.47 1440.41C2467.5 1433.29 2394.22 1428.47 2303.86 1425.25L2226.49 1422.53C2174.01 1420.65 2120.67 1418.6 2068.68 1415.86C1985.19 1411.47 1912.42 1404.01 1846.2 1393.07C1774.01 1381.14 1708.47 1363.39 1651.36 1340.3L1650.1 1339.79C1593.5 1316.78 1539.88 1286.37 1490.68 1249.4C1445.29 1215.28 1401.37 1175.66 1356.41 1128.28C1323.9 1094.02 1291.81 1058.29 1260.62 1023.36L1234.02 993.57L1227.23 986.003C1185.6 939.804 1148.74 902.319 1112.18 869.012L1106.84 864.165C1060.95 822.789 1011.21 787.102 959.007 758.096C908.198 729.937 854.086 706.254 788.465 679.348C730.169 655.481 671.824 631.671 613.428 607.917L26.9238 370.562L28.5169 308.676L654.147 561.854L743.949 598.494C772.344 610.087 800.722 621.7 829.083 633.331L843.768 639.389C895.411 660.794 949.227 684.238 998.97 710.948C1051.84 739.503 1101.53 774.162 1146.66 813.951L1153.44 819.979C1191.94 854.46 1231.34 894.523 1273.64 942.182C1281.46 950.991 1289.27 959.825 1297.06 968.667L1308.76 981.941C1336.8 1013.76 1365.79 1046.67 1394.97 1078.39C1439.94 1127.26 1483.57 1167.9 1528.35 1202.63C1576.46 1239.96 1629.02 1270.56 1684.66 1293.67L1690.5 1296.06C1748.32 1319.45 1815.21 1337.1 1889.32 1348.53C1955.97 1358.81 2029.93 1365.6 2115.43 1369.31C2155.67 1371.05 2196.74 1372.45 2237.23 1373.73L2277.49 1374.99C2302.35 1375.77 2327.2 1376.54 2352 1377.37L2366.48 1377.88C2447.84 1380.88 2518.13 1385.85 2580.95 1393.02C2654.57 1401.41 2723.73 1415.12 2786.52 1433.75C2848.42 1452.24 2907.37 1474.84 2958.73 1495.22L2970.01 1499.71C3003.14 1512.94 3036.24 1526.19 3069.32 1539.47L3148.54 1571.28L3767.88 1821.93L3687.7 1852V1852ZM3596.91 1886.14L2883.5 1597.43L2865.42 1590.35C2814.49 1570.47 2757.93 1549.01 2697.92 1532.14C2635.38 1514.55 2564.7 1501.46 2487.85 1493.23L2478.6 1492.26C2416.56 1485.85 2348.08 1481.07 2264.51 1477.31L2214.06 1475.07C2151.31 1472.26 2087.4 1469.2 2025.4 1465.04C1943.5 1459.55 1871.59 1451.12 1805.57 1439.26C1734.44 1426.48 1669.27 1408.23 1611.9 1385.03L1610.54 1384.48C1553.72 1361.38 1499.68 1331.45 1449.89 1295.52C1403.36 1261.94 1358.56 1223.29 1312.94 1177.37C1277.01 1141.18 1242.22 1103.85 1208.42 1067.17L1188.25 1045.26C1140.6 993.46 1099.91 952.694 1060.19 916.971C1013.88 875.33 964.292 839.493 912.797 810.467C857.325 779.199 795.771 753.299 742.425 731.472C683.998 707.564 625.619 683.814 567.335 660.102L25.1408 440.683L26.7338 378.825L608.032 614.064C666.247 637.765 724.61 661.551 783.021 685.48L795.507 690.62C855.168 715.278 905.254 737.547 952.334 763.636C1003.94 792.338 1053.09 827.611 1098.43 868.477L1101.28 871.058L1104.13 873.656C1142.37 908.554 1180.94 948.007 1224.96 997.243L1241.23 1015.44C1251.99 1027.5 1262.77 1039.55 1273.58 1051.59C1289.06 1068.83 1304.69 1086.14 1320.51 1103.25C1324.42 1107.49 1328.36 1111.65 1332.3 1115.86L1342.44 1126.73L1347.55 1132.16C1392.79 1179.86 1437.05 1219.77 1482.88 1254.21C1531.35 1290.64 1584.11 1320.8 1639.78 1343.92L1645.97 1346.46C1703.97 1369.9 1770.51 1387.93 1843.71 1400.03C1910.52 1411.07 1983.85 1418.59 2067.89 1423.01C2119.94 1425.75 2173.3 1427.8 2225.8 1429.68L2303.33 1432.41C2393.11 1435.59 2466.05 1440.39 2532.86 1447.49C2608.07 1455.5 2677.8 1468.58 2740.09 1486.37C2806 1505.34 2867.04 1529.11 2923.92 1551.84C2983.58 1575.68 3043.07 1599.6 3102.46 1623.5L3677.07 1856.04L3596.91 1886.14H3596.91ZM3505.96 1920.18L2837.38 1649.61L2819.31 1642.5C2768.43 1622.51 2711.93 1600.95 2652.01 1584.04C2589.83 1566.48 2519.41 1553.11 2442.73 1544.31L2434.12 1543.33C2374.94 1536.73 2308.65 1531.34 2227.24 1526.49L2215.21 1525.78C2188.15 1524.21 2161.33 1522.64 2134.74 1520.99L2120.59 1520.11C2108.79 1519.36 2097.05 1518.6 2085.35 1517.81C2067.83 1516.63 2050.32 1515.39 2032.81 1514.08C2024.21 1513.43 2015.62 1512.77 2007.06 1512.08L1985.5 1510.33C1905.12 1503.52 1834.2 1493.97 1768.69 1481.14C1698.61 1467.41 1633.87 1448.64 1576.28 1425.35C1518.67 1402.03 1463.65 1372.44 1412.81 1337.32C1365.24 1304.47 1319.47 1266.93 1272.87 1222.56C1266.47 1216.46 1260.13 1210.34 1253.82 1204.2C1222.67 1173.88 1192.03 1142.55 1162.62 1112.11L1138.02 1086.6C1105.08 1052.56 1075.7 1023.57 1047.97 997.822L1045 995.073C1035.16 985.971 1025.16 976.951 1014.99 968.017C967.932 926.698 918.104 891.15 866.889 862.373C814.26 832.808 758.65 809.064 696.605 783.268L23.3262 510.804L24.9296 448.946L561.971 666.281C620.17 689.96 678.538 713.704 736.965 737.615L748.042 742.159C798.377 762.876 854.914 787.166 906.04 815.985C956.87 844.633 1005.9 880.063 1051.76 921.297L1057.26 926.273C1094.93 960.514 1133.89 999.721 1179.29 1049.06L1199.54 1071.08C1233.5 1107.91 1268.4 1145.37 1304.19 1181.38C1350.13 1227.64 1395.27 1266.58 1442.18 1300.43C1491.12 1335.75 1544.13 1365.35 1599.87 1388.48L1606.49 1391.19C1664.69 1414.73 1730.76 1433.23 1802.86 1446.19C1869.42 1458.15 1941.87 1466.65 2024.36 1472.17C2092.94 1476.78 2163.78 1480.03 2232.83 1483.1L2257.53 1484.19L2276.17 1485.04C2357.91 1488.89 2425.05 1493.78 2486.2 1500.31C2562.14 1508.44 2632.01 1521.37 2693.86 1538.76C2760.43 1557.48 2823.02 1582.01 2878.17 1603.62L3586.14 1890.13L3505.96 1920.18V1920.18ZM3415.2 1954.3L2791.26 1701.8L2767.08 1692.24C2717.84 1672.85 2663.56 1652.21 2606.51 1635.63C2544.05 1617.5 2476.19 1603.85 2399.04 1593.91L2390.87 1592.87C2330.67 1585.3 2265.09 1578.95 2180.34 1572.48L2150.19 1570.19C2087 1565.35 2016.44 1559.64 1948.43 1552.54C1869.59 1544.3 1799.69 1533.58 1734.75 1519.78C1665.78 1505.14 1601.46 1485.85 1543.59 1462.45L1542.15 1461.86L1535.01 1458.86C1530.61 1457.03 1526.21 1455.21 1521.83 1453.31C1481.01 1435.56 1441.42 1414.94 1403.73 1391.79C1401.84 1390.62 1399.9 1389.49 1398.01 1388.31L1396.72 1387.48C1390.63 1383.67 1384.62 1379.8 1378.68 1375.89C1330.08 1343.82 1283.26 1307.44 1235.55 1264.65L1227.6 1257.49C1189.24 1222.79 1151.88 1186.8 1108.72 1144.46L1097.66 1133.62C1048.84 1085.87 1009.58 1049.84 971.171 1017.48C922.425 976.427 873.398 942.546 821.286 913.898C767.982 884.604 710.088 860.082 650.48 835.456L21.5483 580.94L23.1465 519.06L691.162 789.397L711.481 797.878C765.054 820.343 813.87 841.874 860.179 867.895C910.804 896.343 960.088 931.506 1006.67 972.407C1020.49 984.56 1034.01 996.865 1047.24 1009.32L1051.89 1013.7C1076.85 1037.33 1103.36 1063.73 1132.72 1094.16L1151.52 1113.68C1182.29 1145.56 1214.53 1178.57 1247.71 1210.77C1253.2 1216.1 1258.73 1221.41 1264.29 1226.71C1311.19 1271.39 1357.32 1309.21 1405.3 1342.34C1454.76 1376.49 1508.1 1405.51 1563.95 1428.66L1570.89 1431.51C1629.26 1455.11 1694.83 1474.12 1765.78 1488.02C1831.82 1500.96 1903.27 1510.58 1984.22 1517.43L1992.91 1518.12C2013.07 1519.79 2033.24 1521.34 2053.43 1522.77C2063.75 1523.51 2074.11 1524.23 2084.51 1524.92L2101.76 1526.07L2126.68 1527.66L2134.3 1528.13C2154.17 1529.36 2174.11 1530.56 2194.2 1531.75L2226.31 1533.63C2311.36 1538.69 2379.84 1544.36 2440.99 1551.38C2516.89 1560.09 2586.52 1573.29 2647.98 1590.65C2714.59 1609.46 2777.03 1634.09 2832.06 1655.81L3495.34 1924.24L3415.2 1954.3V1954.3ZM3233.42 2022.43L2699.09 1806.19L2680.79 1798.88C2668.89 1794.13 2656.97 1789.39 2645.03 1784.68L2630.83 1779.09L2622.52 1775.85L2608.43 1770.38C2578.16 1758.69 2548.27 1747.54 2517.57 1736.78L2517.22 1736.66C2451.02 1717.33 2382.88 1701.55 2314.71 1689.76L2302.92 1687.75C2248.9 1678.65 2189.77 1670.26 2114.78 1661.06L2064.91 1655.01C2056.79 1654.03 2048.81 1653.05 2040.92 1652.07L2021.23 1649.62L2007.96 1647.94L1989.02 1645.53L1979.55 1644.3L1962.27 1642.04L1951.98 1640.66L1934.59 1638.31L1925.16 1637.01L1906.56 1634.41C1901.55 1633.7 1896.57 1632.97 1891.58 1632.24C1887.7 1631.68 1883.8 1631.12 1879.94 1630.55C1804.05 1619.33 1736.18 1606.29 1672.44 1590.7C1655.67 1586.6 1639.11 1582.26 1622.81 1577.69C1574.43 1564.12 1528.25 1548.49 1484.96 1531.05L1483.48 1530.47C1431.15 1509.13 1380.04 1484.14 1331.64 1455.89L1325.6 1452.34C1322.41 1450.45 1319.19 1448.58 1316.01 1446.66C1265.62 1416.14 1216.75 1382.05 1166.6 1342.43C1121.91 1307.14 1077.68 1269.83 1036.19 1234.33L1020.21 1220.65C968.343 1176.38 926.834 1142.98 886.459 1113C839.453 1078.1 787.51 1045.09 731.79 1014.71C679.794 990.215 625.582 967.464 576.967 947.511L557.276 939.455L17.914 721.189L19.5071 659.302L598.928 893.78L616.631 901.066C667.086 921.886 719.831 944.245 770.699 969.042C824.535 1000.03 874.598 1033.9 920.404 1070.32L928.206 1076.57C964.714 1105.98 1002.85 1139.07 1049.86 1182.17L1056.64 1188.39C1099.26 1227.61 1145.17 1269.35 1192.11 1308.86C1241.29 1350.28 1289.47 1385.75 1339.42 1417.3C1391.64 1450.31 1447.54 1479 1505.6 1502.61L1507.49 1503.38C1566.21 1527.11 1630.8 1547.11 1699.52 1562.82C1764.34 1577.65 1833.69 1589.62 1911.52 1599.4C1978.63 1607.83 2046.18 1614.81 2126.12 1622.56L2134.15 1623.34C2224.4 1632.06 2292.27 1640.05 2354.23 1649.24C2423.91 1659.59 2492.2 1673.83 2558.4 1691.82C2619.44 1712.45 2679.04 1735.92 2739.76 1760.15L3313.57 1992.37L3233.41 2022.43H3233.42ZM3131.8 2060.56L3051.64 2090.63L2606.82 1910.61C2552.56 1888.64 2499.23 1867.16 2445.02 1846.45L2426.68 1839.48C2364.64 1818.71 2299.46 1799.72 2232.74 1782.98C2171 1769.58 2105.84 1756.86 2033.83 1744.15L1990.26 1736.51C1932.43 1726.35 1873.38 1715.81 1815.11 1704.48C1741.73 1690.2 1675.8 1674.94 1613.54 1657.81C1550.57 1640.47 1490.21 1620.35 1434.02 1597.97L1424.11 1593.98C1366.67 1570.63 1310.38 1543.6 1256.75 1513.6C1205 1484.67 1154.14 1452.77 1101.24 1416.07L1091.33 1409.18C1050.16 1380.46 1010.41 1351.55 964.609 1318.02L953.499 1309.88C900.786 1271.26 851.918 1237.22 803.931 1205.7C751.339 1174.04 696.589 1144.31 640.985 1117.21C586.684 1093.4 530.648 1070.44 477.354 1048.84L14.2584 861.435L15.8515 799.58L520.039 1003.62C579.589 1027.8 630.393 1048.97 680.4 1071.59C734.385 1099.32 787.642 1130.23 838.493 1163.36L847.861 1170.14C888.574 1199.75 930.996 1232.11 977.047 1268.71L1008.08 1293.37C1049.93 1326.54 1087.32 1355.6 1125.96 1384.24C1177.85 1422.66 1228.02 1455.86 1279.36 1485.73C1306.05 1501.26 1333.68 1516.04 1362.18 1530.01C1366.81 1532.28 1371.47 1534.49 1376.14 1536.71L1383.02 1540C1387.95 1542.31 1392.9 1544.56 1397.86 1546.81L1404.62 1549.9L1409.52 1552.05L1414.43 1554.19C1418.7 1556.06 1422.97 1557.94 1427.26 1559.76L1429.56 1560.72C1435.43 1563.21 1441.32 1565.69 1447.23 1568.09L1449.62 1569.06C1508.55 1592.86 1572.3 1613.74 1639.07 1631.1C1702.57 1647.61 1769.87 1661.85 1844.82 1674.6C1912.3 1686.1 1982.16 1696.52 2043.95 1705.54L2059.22 1707.77C2137.58 1719.17 2207.11 1730.45 2271.54 1742.19C2339.64 1757.26 2405.6 1774.8 2467.56 1794.31C2526.05 1815.69 2583.06 1838.48 2636.78 1860.23L3131.8 2060.56V2060.56ZM2950.08 2128.69L2869.9 2158.77L2461.33 1993.43C2419.47 1976.49 2377.53 1959.67 2335.49 1942.95C2274.25 1920.14 2211.78 1898.88 2148.21 1879.22C2086.01 1861.69 2021.3 1844.75 1950.34 1827.42L1881.66 1811.21C1837.72 1800.82 1793.15 1790.2 1749.38 1779.44C1677.79 1761.83 1613.78 1744.34 1553.68 1725.96C1489.29 1706.26 1427.08 1684.32 1368.78 1660.75C1309.23 1636.58 1251.72 1610.15 1196.55 1581.6C1144.16 1554.52 1091.29 1524.79 1034.95 1490.73C992.482 1465.06 949.807 1438.63 908.213 1412.8L878.409 1394.29C823.058 1360.61 770.931 1330.26 718.903 1301.42C663.965 1273.02 607.499 1245.99 549.622 1220.4L533.823 1213.86C478.504 1191 423.1 1168.58 373.715 1148.61L10.6608 1001.69L12.259 939.801L414.755 1102.68C456.48 1119.56 497.505 1136.23 538.017 1153.05L553.441 1159.49L568.818 1165.95C575.728 1168.86 582.686 1171.75 589.57 1174.68C646.417 1201.06 701.534 1229.1 754.763 1258.73C805.271 1289.1 857.109 1322.1 908.82 1356.82L957.382 1389.44C991.533 1412.34 1026.37 1435.56 1061.18 1458.11L1066.6 1461.6L1072.01 1465.05C1117.6 1494.29 1161.46 1520.43 1205.3 1544.47L1211.88 1548.06C1214.75 1549.62 1217.63 1551.21 1220.5 1552.75C1273.46 1581.24 1328.52 1607.36 1384.71 1630.31L1392.77 1633.58C1451.44 1657.3 1514.39 1678.98 1579.86 1698.02C1641.25 1715.86 1706.53 1732.32 1779.4 1748.32C1793.88 1751.5 1808.45 1754.65 1823.06 1757.78C1830.86 1759.44 1838.69 1761.09 1846.51 1762.74C1853.03 1764.12 1859.54 1765.51 1866.07 1766.88C1884.04 1770.65 1901.99 1774.39 1919.83 1778.09L1984.78 1791.52C2055.03 1806.08 2123.09 1821.57 2186.86 1837.53C2251.22 1855.59 2314.36 1875.57 2376.1 1897.42C2428.83 1917.9 2480.45 1938.65 2536.45 1961.3L2950.08 2128.69V2128.69ZM12.4857 931.581L14.0846 869.719L460.516 1050.38C516.569 1073.06 576.25 1097.37 634.998 1123.12C690.07 1149.96 744.54 1179.54 796.715 1210.95C844.365 1242.25 893.1 1276.2 945.714 1314.74L969.794 1332.37C1008.7 1360.82 1051.05 1391.55 1093.65 1421.07C1146.84 1457.96 1197.97 1490.03 1249.98 1519.12C1304 1549.33 1360.71 1576.57 1418.56 1600.09L1421.26 1601.18C1479.97 1624.93 1543.32 1646.21 1609.52 1664.44C1672.13 1681.67 1738.41 1697.03 1812.16 1711.35C1882.83 1725.09 1956.82 1738.05 2022.1 1749.49L2038.81 1752.44C2107.91 1764.73 2170.42 1776.98 2229.25 1789.74C2295.43 1806.35 2360.27 1825.24 2421.74 1845.81C2482.08 1868.6 2541.13 1892.37 2601.34 1916.75L3040.95 2094.65L2960.81 2124.7L2520.87 1946.68C2473.64 1927.62 2431.11 1910.6 2387.31 1893.55L2381.15 1891.16C2319.03 1869.15 2255.48 1849.04 2190.7 1830.88C2126.54 1814.82 2058.29 1799.28 1987.86 1784.69L1920.93 1770.85C1903.93 1767.32 1886.82 1763.76 1869.69 1760.17C1840.61 1754.08 1811.6 1747.87 1782.64 1741.52C1710.07 1725.59 1645.1 1709.21 1584.01 1691.44C1518.96 1672.54 1456.44 1651 1398.16 1627.44C1340.03 1603.97 1282.33 1576.87 1227.07 1547.17L1222.41 1544.63L1217.74 1542.09C1173.17 1517.82 1128.63 1491.42 1082.29 1461.82L1073.11 1455.94C1071.58 1454.95 1070.04 1453.96 1068.5 1452.96C1033.62 1430.36 998.68 1407.07 964.434 1384.1L916.273 1351.76C864.393 1316.93 812.419 1283.85 761.636 1253.32C708.068 1223.49 652.595 1195.26 595.377 1168.72L588.272 1165.73C539.161 1144.93 489.492 1124.63 438.867 1104.12L376.437 1078.85L12.4857 931.577V931.581ZM17.7137 729.427L551.832 945.569L571.471 953.607C619.943 973.496 673.965 996.169 725.444 1020.42C780.442 1050.41 831.984 1083.17 878.647 1117.8L883.996 1121.78C921.501 1149.84 960.547 1181.31 1008.6 1222.25L1036.85 1246.41C1075.8 1279.64 1116.96 1314.21 1158.56 1347.07C1209.04 1386.93 1258.24 1421.25 1308.95 1451.98C1311.71 1453.65 1314.51 1455.26 1317.29 1456.91C1321.23 1459.25 1325.15 1461.61 1329.11 1463.91L1330.63 1464.76C1375.06 1490.37 1421.64 1513.3 1469.51 1533.1L1477.12 1536.21L1479.56 1537.18C1523.23 1554.78 1569.87 1570.57 1618.77 1584.28C1635.32 1588.92 1652.03 1593.31 1668.88 1597.43C1732.9 1613.1 1801.21 1626.22 1877.7 1637.53L1883.5 1638.38L1904.38 1641.39L1913.38 1642.65C1919.75 1643.54 1926.14 1644.44 1932.57 1645.32L1949.71 1647.64L1963.83 1649.51L1980.6 1651.71L1997.75 1653.91L2013.57 1655.92L2039.83 1659.19L2066.57 1662.47L2112.9 1668.1C2193.16 1677.93 2255.15 1686.84 2312.12 1696.69C2379.53 1708.34 2447.07 1723.98 2512.88 1743.18L2522.92 1746.75C2527.11 1748.24 2531.31 1749.71 2535.48 1751.22L2541.32 1753.36C2546.96 1755.4 2552.58 1757.46 2558.2 1759.53L2563.95 1761.69C2569.52 1763.76 2575.09 1765.84 2580.64 1767.95L2589.14 1771.2C2593.76 1772.95 2598.38 1774.71 2603 1776.5L2619.06 1782.74L2630.03 1787.03C2651.19 1795.35 2672.35 1803.8 2693.64 1812.34L3222.71 2026.45L3142.57 2056.51L2652.99 1858.39C2595.68 1835.18 2534.51 1810.62 2472.2 1787.86C2409.71 1768.19 2343.31 1750.52 2274.61 1735.32C2209.74 1723.5 2140.03 1712.19 2061.49 1700.76L2035.51 1696.97C1974.47 1688.03 1910.57 1678.42 1847.44 1667.66C1773.02 1654.98 1706.12 1640.84 1642.9 1624.4C1576.58 1607.16 1513.38 1586.47 1455.08 1562.9C1397 1539.5 1340.06 1511.57 1286.28 1480.28C1235.14 1450.53 1185.26 1417.53 1133.8 1379.4C1089.93 1346.9 1047.57 1313.66 1007.5 1281.84L979.79 1259.82C932.051 1222.02 888.247 1188.77 846.047 1158.32C794.536 1124.78 740.963 1093.68 686.572 1065.75C632.224 1041.17 577.479 1018.5 512.127 992.039L16.1155 791.324L17.7137 729.427V729.427ZM645.053 841.592C704.376 866.103 761.984 890.493 814.661 919.473C866.214 947.829 914.728 981.36 962.973 1021.98L968.075 1026.3C1004.68 1057.4 1042.47 1092.2 1089.01 1137.71L1113.31 1161.52C1153.99 1201.28 1189.91 1235.58 1227.15 1268.98C1275.19 1312.05 1322.36 1348.7 1371.33 1381.03C1381.77 1387.92 1392.42 1394.55 1403.16 1401.04C1405.76 1402.6 1408.33 1404.22 1410.95 1405.76L1415.82 1408.55C1448.03 1427.32 1481.48 1444.28 1515.91 1459.23C1521.24 1461.55 1526.63 1463.78 1532.01 1466.01L1538.2 1468.6C1596.79 1492.3 1661.86 1511.81 1731.61 1526.62C1797.06 1540.53 1867.47 1551.32 1946.85 1559.61C2009.1 1566.13 2073.44 1571.46 2132.33 1576.03L2184.93 1580.04C2270.6 1586.65 2336.43 1593.14 2397.1 1600.95C2473.43 1610.78 2540.57 1624.27 2602.36 1642.22C2668.51 1661.43 2730.91 1686.18 2785.92 1708L3404.4 1958.29L3324.25 1988.35L2745.16 1754L2726.25 1746.47C2669.99 1724.12 2617.79 1703.89 2562.52 1685.22C2495.71 1667.07 2426.8 1652.69 2356.48 1642.25L2348.47 1641.07C2292.15 1632.88 2230.8 1625.62 2152.65 1617.91L2106.12 1613.38C2045.89 1607.48 1978.98 1600.61 1913.44 1592.36C1836.11 1582.64 1767.22 1570.76 1702.87 1556.04C1634.88 1540.49 1570.96 1520.7 1512.9 1497.23L1511.57 1496.69C1508.44 1495.41 1505.34 1494.07 1502.22 1492.77L1494.67 1489.63C1493.41 1489.1 1492.15 1488.56 1490.9 1488.02C1459.16 1474.32 1428.13 1459.08 1398.06 1442.45L1386.22 1435.86C1384.24 1434.74 1382.31 1433.56 1380.33 1432.42C1368.87 1425.8 1357.63 1419.02 1346.61 1412.07C1297.14 1380.82 1249.29 1345.6 1200.33 1304.37C1156.81 1267.73 1113.92 1228.94 1073.71 1192.02L1065.13 1184.14C1011.41 1134.72 969.256 1098.18 928.433 1065.68C882.177 1028.89 831.6 994.685 777.197 963.409C719.699 935.368 660.297 910.614 604.361 887.645L19.7073 651.05L21.3165 589.178L645.053 841.592V841.592ZM19.5386 250.873L18.3783 296.25L18.2888 296.215L16.263 374.567L16.2894 374.578L12.6815 514.809L12.7021 514.816L11.1038 576.713L11.0826 576.706L9.05745 655.055L9.06775 655.058L7.25317 725.194L7.26927 725.201L5.67041 787.141L5.62855 787.123L3.60791 865.479L3.64526 865.496L2.04639 927.354L2.03094 927.347L0 1005.7L426.993 1178.5C466.102 1194.35 505.098 1210.32 543.978 1226.42C601.544 1251.89 657.708 1278.77 712.356 1307.02C764.115 1335.71 816.133 1365.98 871.309 1399.57L885.536 1408.41C932.025 1437.29 980.091 1467.14 1027.92 1496.05C1084.47 1530.24 1137.54 1560.08 1190.15 1587.28C1242.37 1614.28 1296.31 1639.29 1350.69 1661.7L1363.36 1666.88C1422.01 1690.59 1484.57 1712.65 1549.34 1732.46C1609.68 1750.92 1673.93 1768.48 1745.78 1786.15C1789.6 1796.92 1834.2 1807.55 1878.16 1817.95L1946.81 1834.15C2017.56 1851.43 2082.11 1868.32 2143.99 1885.76C2207.22 1905.33 2269.36 1926.47 2330.28 1949.15L2346.02 1955.42C2386.3 1971.48 2426.49 1987.64 2466.61 2003.88L2869.7 2167L2960.56 2132.93L2960.6 2132.94L3062.13 2094.87L3062.12 2094.86L3152.94 2060.8L3152.92 2060.79L3243.9 2026.67L3243.88 2026.66L3334.71 1992.6H3334.7L3414.87 1962.52L3414.95 1962.56L3516.49 1924.47L3516.4 1924.44L3596.61 1894.36L3596.66 1894.39L3698.21 1856.27L3698.14 1856.25L3778.43 1826.14L3778.5 1826.17L3838.63 1803.62L3839.47 1771.67L3839.3 1771.6L3840.89 1709.76L3841 1709.8L3843.02 1631.45L3842.93 1631.41L3844.53 1569.49L3844.62 1569.53L3846.64 1491.17L3846.61 1491.16L3848.21 1429.29L3848.23 1429.3L3850.24 1350.94L3850.19 1350.92L3852 1280.83L3166.07 1003.24C3150.86 997.567 3135.68 991.869 3120.53 986.143L3069.57 966.903C3045.9 957.98 3021.88 948.978 2997.86 940.179L2983.44 934.929C2924.07 913.416 2860.85 892.206 2795.54 871.893L2776.49 866.025C2730.28 851.879 2680.13 837.098 2618.11 819.351L2584.47 809.742C2533.79 795.225 2471.35 776.982 2409.89 757.468C2343.34 736.362 2283.05 714.792 2225.57 691.531C2170.53 669.35 2116.49 644.821 2060.4 616.812L2052.73 612.971C2000.03 586.465 1948.57 558.902 1906.6 536.083L1864.73 513.249C1823.48 490.812 1773.65 464.041 1723.1 438.113C1666.44 409.044 1609.46 381.57 1553.75 356.456C1526.56 344.206 1498.85 332.077 1471.53 320.208L1444.36 308.429C1422.96 299.171 1401.6 289.87 1380.28 280.527L687.706 0.25L505.992 68.4115H505.982L222.67 174.673L222.702 174.684L142.479 204.77L142.452 204.759L19.5335 250.873H19.5386Z" fill="url(#paint0_linear_3_10)"/>
<defs>
<linearGradient id="paint0_linear_3_10" x1="922.747" y1="614.134" x2="1918.8" y2="2285.42" gradientUnits="userSpaceOnUse">
<stop stop-color="#FC7E3F" stop-opacity="0"/>
<stop offset="0.53022" stop-color="#FC7E3F" stop-opacity="0.32"/>
<stop offset="1" stop-color="#6163FF" stop-opacity="0"/>
</linearGradient>
</defs>
</svg>
