<svg version="1.2" xmlns="http://www.w3.org/2000/svg" viewBox="0 0 1920 1080" width="1920" height="1080">
	<title>illustration-section-01-svg</title>
	<defs>
		<linearGradient id="g1" x1="529382.8" y1="432165.4" x2="1683201.1" y2="1184710.7" gradientUnits="userSpaceOnUse">
			<stop offset="0" stop-color="#fc7e3f" stop-opacity="0"/>
			<stop offset="53" stop-color="#fc7e3f" stop-opacity=".3"/>
			<stop offset="100" stop-color="#6163ff" stop-opacity="0"/>
		</linearGradient>
	</defs>
	<style>
		.s0 { fill: url(#g1) } 
	</style>
	<path id="Layer" fill-rule="evenodd" class="s0" d="m-225-539.4l63.1-34.9v-0.1l222.7-123.4 142.8-79.2 544.5 325.6q6.3 4.1 12.6 8.2 6.3 4 12.6 8.1 6.3 4 12.6 8.1 6.3 4 12.6 8l21.3 13.7c21.5 13.8 43.3 27.9 64.7 42.1 43.8 29.2 88.6 61.1 133.1 94.9 39.7 30.1 78.9 61.2 111.3 87.3l33 26.5c33 26.5 73.4 58.6 114.8 89.4l6.1 4.4c44.1 32.6 86.6 61.1 129.8 86.8 45.2 27.1 92.6 52.1 144.9 76.6 48.3 22.7 97.4 43.9 137.3 60.8l26.4 11.1c48.8 20.7 88.2 37.8 124.5 54.3l15 6.8c51.3 23.6 101 48.2 147.7 73.2l11.4 6.1c18.8 10.2 37.7 20.7 56.3 31.1l40.1 22.3q4.5 2.5 8.9 5 4.5 2.5 9 5 4.4 2.4 8.9 4.9 4.5 2.5 9 5l539.2 322.5-1.4 81.4h0.1l-1.6 91.1-1.3 71.8v0.1l-1.6 91v-0.1l-1.3 72h0.1l-1.6 91.1-0.1-0.1-1.3 71.9h0.2l-0.7 37.2-47.2 26.2-0.1-0.1-63.1 35-79.8 44.3-63.1 34.9 0.1 0.1-79.9 44.2-63 34.9-71.4 39.6-71.5 39.6-71.4 39.6-79.8 44.3-0.1-0.1-71.4 39.6-316.9-189.5q-11.8-7.1-23.6-14.1-11.9-7.1-23.7-14.1-11.9-7-23.7-14.1-11.9-7-23.8-14l-12.4-7.3q-17.9-9.8-36.1-19.4-18.1-9.5-36.4-18.7-18.3-9.3-36.8-18.1-18.5-8.9-37.1-17.4c-48.7-20.3-99.4-39.9-155-60l-54-18.8c-34.6-12.1-69.6-24.4-104.1-36.9-56.4-20.6-107-41-154.4-62.4-50.9-23-100.1-48.7-146.2-76.2l-10-6c-42.7-26.1-85.1-55.1-126.2-86.5-41.3-31.6-83.1-66.3-127.5-106-37.6-33.6-75.4-68.2-111.9-101.8l-11.2-10.3c-43.4-39-84.3-74.2-125-107.5q-16.1-12.3-32.4-24.3-16.4-12-32.9-23.7-16.6-11.7-33.3-23.1-16.8-11.4-33.8-22.5-11.4-7-22.9-14-11.5-7-23-14-11.5-6.9-23-13.9-11.5-6.9-23-13.8l-335.7-200.8 1.6-91 1.3-71.9h-0.1l1.6-91h0.1l1.2-72 1.4-81.4 1.6-91.1 1.3-71.9 2.8-162.9 1.6-91 1-52.7c0 0 96.6-53.6 96.6-53.6zm79.7-34.7l435.6 260.5 69.7 42.1q7.8 4.7 15.6 9.4 7.8 4.7 15.6 9.5 7.8 4.7 15.6 9.4 7.7 4.7 15.5 9.4l5.6 3.4c38.3 23.3 79 48.5 119 75.8q2.2 1.4 4.3 2.9 2.1 1.4 4.2 2.9 2.2 1.5 4.3 3 2.1 1.4 4.2 2.9 9 6.4 17.8 12.9 8.9 6.6 17.5 13.4 8.7 6.8 17.2 13.8 8.5 7 16.8 14.2 7.4 6.3 14.5 12.8 7.2 6.4 14.3 13.1 7 6.6 13.9 13.4 6.9 6.8 13.6 13.8c37.1 38.6 73 82.7 109.6 134.6 28 39.7 55.7 81.3 82.4 121.6l9.2 13.8 9.3 13.9c37.3 56.1 72 101.9 106 140.1 38.6 43.5 80.7 79.1 125.1 105.8l4.5 2.6c43.8 25.7 94.2 45.3 149.8 58.6 50.4 11.9 105.9 20.6 174.5 27.2l45.4 4.3c44.8 4.2 90.6 8.7 135.2 14.2 63.5 7.9 119.7 18.9 171.8 33.8 52.3 15 104.6 35.6 155.3 61.3 44.2 22.5 87.4 47.1 128.1 70.9l15.1 8.9 47 27.7q46.7 27.7 93.4 55.4c14.2 8.5 28.4 17 42.7 25.5l4.1 2.5 377.9 226 1.2-71.9-256-153.2-142.8-85.4-38.2-22.6q-29.9-17.7-59.8-35.4l-37.4-22.1c-44.4-26.2-92.3-54.1-142.3-80.6-50.7-26.8-100-48.4-150.9-65.8-51-17.4-106.6-31.6-165.2-42.4-49.7-9.1-100.6-16.5-150.4-23.5l-24.8-3.4c-68.3-9.5-123-20.1-172.2-33.2-57.1-15.2-109-36.7-154.4-63.8l-5-3c-43.5-26.7-85.2-61.2-124.1-102.6-34.8-37.1-69.8-80.1-110.1-135.3l-15.3-20.9c-29.4-40.2-59.7-81.1-90.4-119.8-36.8-46.2-75.2-88.2-114.1-124.8-38.4-35.9-81.3-69.9-127.6-101.3-46.7-31.4-95.1-61.2-136.3-86.2l-34.4-20.8c-34.3-20.8-68.7-41.5-102.9-62.2l-404.8-242zm71.5-39.7l400.4 239.6 36.9 22.2c33.5 20.2 67.1 40.4 100.7 60.8 43.5 26.5 90.2 55.2 136.6 86.5 46.7 31.6 89.9 65.9 128.6 102.1 39.2 36.8 77.9 79.1 115 125.7 30.9 38.9 61.3 80 90.9 120.4l14.7 20.2 6.1 8.3c37.7 51.2 70.8 91.5 103.6 126.6 39.5 42.1 82 76.9 126.3 103.5l1 0.6c44.7 26.8 96 47.9 152.3 62.9 48.9 13 103.3 23.5 171.2 33l12.4 1.7c53.8 7.5 109.1 15.4 163.1 25.3 59 10.8 115.1 25.2 166.5 42.7 51.2 17.6 101 39.3 152.1 66.3 44.5 23.7 87.4 48.4 127.6 72l15 8.7c12.5 7.4 24.9 14.8 37.4 22.2q29.9 17.7 59.8 35.4l43.2 25.6 389.8 233.2 1.3-71.9-499.2-298.5-25.4-14.7-36.7-21.1c-26.4-15.2-53.2-30.4-79.9-45.2-51.2-28.1-99.7-51.1-148.3-70.5-43.7-17.3-90.3-32.7-138.9-46q-10.4-2.8-20.9-5.5c-56.4-14.4-114.5-26.5-168.9-37.4l-4.9-1c-49.1-9.9-90.7-19.6-127.9-29.9l-7.4-2.1q-14-3.9-27.1-8c-55.9-17.2-107.3-39.6-152.5-66.7l-5.5-3.3c-30.8-18.8-60.9-41.2-90-66.6l-3.8-3.2c-2.3-2-4.6-4.2-6.9-6.2l-4.9-4.6q-2.5-2.2-5-4.6-2.5-2.3-4.9-4.6-2.5-2.3-4.9-4.7-2.5-2.3-4.9-4.7c-33.3-32.9-67.9-71.2-108.5-119.9l-3.1-3.8-18.2-21.9c-22.2-26.8-42.7-51.1-63-74.3l-6.8-7.7q-3.3-3.8-6.7-7.6-3.3-3.8-6.7-7.5-3.4-3.8-6.8-7.5-3.4-3.8-6.8-7.5c-38.9-42.4-79.2-81.4-119.7-115.8-14.1-12-28.6-23.7-43.6-35.2l-2.3-1.8-9.4-7.1c-23.7-17.7-48.6-35.2-75.2-52.5-43.9-28.5-88.3-55.8-124.2-77.7l-47.1-28.5c-34.4-20.8-68.7-41.4-103-62.1l-369.6-221zm71.5-39.6c0 0 365.3 218.5 365.3 218.5 45.8 27.6 91.7 55.2 137.5 83 35.8 21.7 82.4 50.1 129.4 80.4l7.8 5.1c28.4 18.5 54.8 37 79.8 56q2.6 2 5.3 4 2.6 2 5.2 4.1 2.7 2 5.3 4 2.6 2.1 5.2 4.2l9.3 7.4q2.7 2.1 5.3 4.3 2.7 2.2 5.3 4.4 2.7 2.2 5.3 4.4 2.7 2.2 5.3 4.4c40.8 34.7 81.3 73.9 120.4 116.5 34.1 37.3 66.7 75.7 104.4 121.1l10.8 13.1c39.8 48.1 73.8 86 106.3 118.4l4.9 4.8c40.7 40.2 83.8 74.1 128.1 100.7l1.1 0.6c44.6 26.7 95.3 48.9 150.6 66q13.2 4 27 7.9c36.3 10.2 76.7 19.9 124.5 29.8l10 2 23.4 4.7c12.3 2.5 24.7 5.1 37.3 7.7 37.5 7.9 76 16.5 113.7 26.1 49.4 12.7 97 27.7 141.8 44.5q9.6 3.6 19 7.4c48.9 19.4 97.7 42.6 149.2 70.9 30.3 16.7 60.6 34 90.4 51.2l25.3 14.6 26.6 15.2 495.1 296.1 1.2-71.9-464.2-277.6q-7.3-4.2-14.6-8.5l-53.4-30.9c-24.4-14.1-49.1-28.4-73.7-42.3-52-29.5-99.8-53.8-145.9-74.6-48.7-21.8-100.9-41.9-155-59.9-42.9-14.1-89.4-28.1-149.2-44.8l-27.7-7.7c-42.8-12-95.6-27.5-147.1-46.1-54.6-19.6-105.1-43.2-150.1-70.2l-6.3-3.8c-34.6-21.1-69-46.1-102.7-74.4q-3-2.6-6-5.1-3-2.6-6-5.1-2.9-2.6-5.9-5.2-2.9-2.6-5.9-5.2c-40.4-36.4-78.9-75.4-109.6-107.3l-18.3-19.1c-29.1-30.4-65.5-67.8-103.8-104.5l-6.9-6.7c-41.3-39.2-83.2-75.3-124.8-107.5-39.7-30.7-83.2-61-133-92.6q-9.2-5.8-18.3-11.5-9.2-5.7-18.4-11.4-9.1-5.7-18.3-11.4-9.2-5.7-18.4-11.4l-44-27.1-19.8-12.3-472.1-282.3zm134.5-74.6c0 0-63 35-63 35l468 279.9c13.2 8.2 26.5 16.4 39.7 24.5l12.1 7.5c28.2 17.4 57.1 35.2 85.5 53.1 50.2 31.9 93.9 62.3 133.7 93.1 41.7 32.3 83.9 68.7 125.4 108 38.7 36.9 75.9 75 105.9 106.3l23.3 24.2c30.5 31.8 68.8 70.6 109.3 106.9 42.1 38 85.8 70.6 129.9 97l6.1 3.7c43.4 25.5 91.9 48 144.1 66.8 50.9 18.3 103.4 33.7 146.1 45.7l25.7 7.2c41 11.4 91.9 26 143 42.6l9 3c54.4 18 106.8 38.2 155.7 60.1 46.4 20.9 94.4 45.4 146.7 75 20.7 11.8 41.6 23.8 62.2 35.7l58.2 33.7 21.3 12.4 460.3 275.2 1.2-71.8-429.5-256.9c-19.8-11.5-39.6-23.1-59.5-34.7l-27.2-15.9q-27.3-15.9-54.6-31.7c-51.3-29.6-94.9-53.3-136.3-74.1l-7.8-3.8c-47.7-23.7-98.4-46.2-150.7-67.1-48.6-19.4-98-37.4-138.6-51.9l-28.3-10.1c-39.5-14-88.3-31.9-136.8-51.9l-8.8-3.6c-54-22.6-102.3-46.7-147.8-73.9l-0.9-0.6-6.3-3.8c-42.9-26.1-84.7-55.8-127.6-90.6-42.4-34.5-82.7-70.3-114.9-99.4l-16.1-14.6c-31.1-28.3-70.6-63.7-111.7-98.5l-7.2-6.2c-42.7-35.9-86.2-69.7-129.2-100.4-37-26.4-77.2-53.1-125.9-83.5l-9.2-5.8c-26.7-16.5-53.4-32.8-80.1-49.2l-28.8-17.6-28.7-17.7zm8.4-4.6l432.8 258.8c19.2 11.9 38.4 23.6 57.6 35.4l26.7 16.3q6.7 4.1 13.3 8.2 6.7 4.1 13.4 8.2 6.7 4.1 13.3 8.2 6.7 4.1 13.4 8.3c49.9 31 91 58 128.6 84.6l7 5c43 30.7 86.6 64.6 129.6 100.8 38.3 32.2 76 65.8 107.3 94l30.4 27.6c43.6 39.5 78.7 69.7 112.2 96.9l5.3 4.3c42.5 34.2 84 63.3 126.7 89l7.2 4.3c43.1 25.4 90.6 49 141.3 70.1 46.9 19.6 94.6 37.3 134.3 51.5l38.7 13.8c38.1 13.6 84.2 30.4 130.7 48.8l8.7 3.4c52.7 21 103.6 43.7 151.4 67.3 41.2 20.5 84.3 43.7 134.9 72.7l9.6 5.5 27.7 16.1q27.6 16 55.2 32.2l29.3 17 29.2 17.1 425.3 254.4 1.3-71.9-535-320q-13.4-7.3-26.8-14.8l-48.9-27.3c-22.3-12.5-45-25-67.6-37.1-46.6-24.9-96.1-49.5-147.3-73-38.5-17.6-79.6-35.7-131.2-57.6l-41.3-17.4c-36.2-15.4-79.2-34-122.2-54l-8.5-4c-52.6-24.6-100.3-49.8-145.7-77-45.3-27-90.1-57.2-136.5-91.7-41.8-31-82.5-63.2-115.6-89.9l-32.5-26.2c-32.4-26-71.5-57.1-111.2-87.1l-8.3-6.3c-41.6-31.4-83.5-61-124.4-88.3-28.4-18.9-57.6-37.6-85.8-55.7l-16.8-10.8q-4.2-2.7-8.4-5.4-4.2-2.7-8.4-5.4-4.2-2.7-8.4-5.4-4.2-2.7-8.3-5.4l-540.3-323.1zm2533.9 1936.8l-463.6-277.3c-17.6-10.4-35.8-21.2-54.1-32.1l-37.1-22-34.3-20.2-20.3-12c-49.9-29.3-92.9-53.4-137.9-75.3-50.4-24.2-103.1-42.9-156.8-55.5-52-12.2-109.2-20.7-175-26.2-29.9-2.5-60.4-4.6-90.5-6.6l-57.3-3.8-36-2.4q-12.8-0.9-25.1-2c-57.6-4.8-107.8-12.1-152.7-22-58.5-13-111.2-33.4-156.6-60.5l-4.5-2.7c-43.7-26.9-84.9-62.6-122.7-106.4-32.4-37.5-64.8-81.8-98.9-135.2l-5.8-9.2c-11.8-18.7-23.5-37.4-35.1-56.2l-15.4-24.5c-15.4-24.8-31.1-49.8-46.9-74.1-35.6-55.1-69.8-101.2-104.5-141q-13.6-15.5-27.9-30.3-14.4-14.7-29.6-28.7-15.2-14-31.1-27.1-15.9-13.1-32.5-25.3c-39.6-29.1-81.2-55.5-120.9-79.8l-14-8.6c-44.8-27.2-89.7-54.2-134.4-81.2l-3.1-1.9-474.9-284-63 34.9 506 302.6 44.8 27q11.6 7 23.2 14 11.6 7 23.2 14.1 11.6 7 23.2 14 11.6 7 23.2 14c44 26.8 90.8 56.2 134.8 89.9 43.6 33.5 83.9 73 119.7 117.4 33.4 41.4 66.8 89.5 102.1 147q3.7 6.1 7.4 12.2 3.7 6 7.4 12.1 3.7 6.1 7.4 12.2 3.7 6.1 7.3 12.2l21.8 36.2c14.6 24.1 29.5 48.8 44.3 72.9 35.2 57 69 104.2 103.4 144.3 38.1 44.4 79.9 80.4 124.2 107.1l0.9 0.5c44.6 26.7 96.5 46.6 154.2 59.3 51.7 11.3 109.6 18.8 177.1 22.9 22.8 1.3 45.9 2.6 68.7 3.7l52.7 2.7c21.3 1 43 2.2 64.3 3.4 67.9 4 126.5 11 179.3 21.2 56.3 10.9 110.6 28.2 161.3 51.5 48.7 22.5 95 48.8 135.4 72.5l9.2 5.4 35.8 21.1q35.7 21.1 71.4 42.3l33.3 19.7 494.2 295.6c0 0 1.3-71.8 1.3-71.8zm-1.3 81.5l-499-298.4c-46.5-27.6-93.2-55.3-140-82.9-52.3-30.7-96.7-55.7-143.8-77.5-50.1-22.9-103.7-40-159.5-50.9-52.3-10.1-110.6-17-178.2-21-21.3-1.2-43-2.4-64.4-3.4l-39-2c-27.2-1.4-55-2.8-82.2-4.4-68-4.1-126.4-11.7-178.4-23.1-58.6-12.8-111.3-33.1-156.7-60.3l-4.4-2.6c-43.8-26.9-85-62.7-122.7-106.6-34.6-40.4-68.7-87.9-104.2-145.4q-4.7-7.6-9.3-15.2-4.7-7.6-9.3-15.3-4.6-7.6-9.3-15.2-4.6-7.6-9.2-15.3l-29.1-48.3c-9.7-16.2-19.6-32.5-29.4-48.5-35.1-57.3-68.3-105.1-101.5-146.1-35.4-44-75.2-83-118.3-116.1-43.5-33.3-90.2-62.6-134.1-89.4-44.7-27-89.3-54-133.8-80.8l-3.7-2.2-510.1-305.1-16.9 9.3-0.9 52.7 496 296.6 41 24.7q12.1 7.3 24.1 14.6 12.1 7.2 24.2 14.5 12 7.3 24.1 14.6 12.1 7.3 24.1 14.6c44.3 26.9 91.3 56.6 134.4 90.8 42.1 33.6 81.7 74.4 117.6 121.1 32.1 41.9 64.9 90.9 100.3 149.8q14 23.2 27.9 46.5c21.9 36.9 44.6 74.9 67.4 111.6 35.1 56.4 69.2 103.3 104.1 143.3 38.3 43.9 80.2 79.7 124.6 106.3l4.5 2.7c43.9 25.7 94.4 45.1 150.3 57.9 52 11.8 109.7 19.6 176.4 23.9 31.6 2 63.9 3.7 95.8 5.1l51.1 2.4q19.5 0.9 39 1.9c69.2 3.4 128.4 9.4 180.9 18.3 58.6 9.8 113.6 25.9 163.6 47.9 52.7 23.2 102.5 51.9 145.1 77l40.4 23.9q40.3 23.9 80.5 47.7l19.5 11.6 491.1 293.7 38.9-21.6zm-47.9 53.7l-486.9-291.2-62.3-37q-9.7-5.8-19.5-11.6-9.7-5.7-19.5-11.5-9.8-5.8-19.5-11.6-9.8-5.7-19.6-11.5l-8.8-5.2c-40.4-23.7-86.7-49.9-135.4-71.4-49.4-21.7-103.7-37.6-161.6-47.3-49.4-8.4-104.7-14.1-168.6-17.6l-11.4-0.6c-19.5-1-39-1.9-58.6-2.8l-31.6-1.4c-31.9-1.5-64.1-3.2-95.8-5.2-67.2-4.3-125.3-12.2-177.7-24.1-58.3-13.3-110.9-33.8-156.3-61l-4.6-2.8c-43.8-26.8-85.1-62.4-122.9-105.7-35.2-40.4-69.5-87.6-104.9-144.4-22.9-36.8-45.7-75.1-67.7-112l-9.2-15.5q-9.2-15.4-18.4-30.7c-33.3-55.4-64.3-101.9-94.5-142l-5.4-7c-35.5-46.2-74.5-86.5-116.1-119.7-39.1-31-81.4-58.2-122-83.1l-11.5-7q-8.4-5.1-16.8-10.2-8.3-5-16.7-10.1-8.4-5.1-16.7-10.1-8.4-5.1-16.8-10.1l-70.6-42.6-491.8-294.1-1.2 71.9 461 275.7q17.2 10.4 34.5 20.7 17.2 10.4 34.4 20.8 17.2 10.3 34.4 20.7 17.2 10.4 34.3 20.8c51.6 31.3 94.2 58.8 134.1 91.5 41 33.7 80.1 75.2 116.2 123.2l4.2 5.7c28.8 38.7 57.7 82.2 90.5 135.9l5.3 8.8 20.9 34.6c24.5 40.6 49.8 82.1 75.3 121.9 35.4 55 69.9 101.1 105.6 140.7 38.7 43 80.8 78.3 125.3 105l1 0.6c44.9 26.8 96.4 47.5 153.2 61.3 52 12.7 109.2 21.4 174.9 26.5 40.8 3.2 82.8 5.6 124 7.7l60.9 3.2c71 3.8 128.6 9.3 181.3 17.6 59.8 9.4 115.2 24.8 164.8 45.8 48.3 20.5 93.1 45.7 135.1 70.4l10.4 6.1q17.6 10.4 35.1 20.8 17.6 10.4 35.1 20.8 17.6 10.4 35.1 20.8 17.6 10.4 35.1 20.9l455.9 272.6zm-134.5 74.6c0 0 63.1-35 63.1-35l-451.8-270.1c-46.7-27.8-93.4-55.6-140.3-83.3-44.7-26.4-92.7-54-144.5-76-49-20.7-103.8-35.9-163-45.2-52.5-8.3-109.8-13.8-180.4-17.5l-61-3.2c-41.2-2.2-83.2-4.6-124.1-7.8-66.1-5.1-123.7-13.8-176.2-26.6-57.6-14.1-109.9-35.1-155.5-62.3l-4.8-2.9c-43.8-26.9-85.3-61.9-123.4-104.3-36-40-70.8-86.3-106.4-141.8l-4-6.3-8-12.6c-3.1-4.9-6.2-9.7-9.2-14.6-12.5-19.9-24.8-40-36.9-60.1q-3.2-5.2-6.4-10.5-3.2-5.2-6.4-10.5-3.1-5.2-6.3-10.5-3.2-5.2-6.4-10.5l-12.8-21.1c-34.6-57.2-64.9-103-94.9-143.6l-2.3-3-2.2-3c-35.7-47.5-74.3-88.5-114.9-121.8-37-30.3-76.4-56.2-123.3-84.8l-9.8-6c-45.9-27.8-91.8-55.5-137.5-83l-457-273.3-1.3 71.9 426.3 254.9c45.8 27.5 91.7 55.1 137.6 82.9 41.9 25.4 90.3 55.5 133.9 91.8 40.5 33.7 79.5 75.4 115.9 123.7 31.2 41.5 63.2 88.9 100.7 149.1l15.8 25.4c26.6 42.6 54 86 82.2 128.1 35.9 53.3 71.1 98.2 107.7 137.2 39.1 41.8 81.6 76.5 126.3 103.4l1 0.6c45.1 27 96.4 48.2 152.3 63 51.9 13.8 108.4 23.6 172.8 30 48.8 4.8 99 8.4 148.3 11.6l39.7 2.6c65.7 4.4 119.5 10 168.3 17.4l7.3 1.1c60.4 9.6 115.9 24.8 165.1 45.2 47.2 19.6 91.6 44.6 131.7 67.7l14.2 8.2zm-8.5 4.6l-556.5-332.8c-43.4-25.2-92.6-53.6-144.9-75.4-48.7-20.2-103.6-35.2-163.3-44.7-48-7.6-100.8-13.2-165.1-17.7l-14.6-1-19.5-1.3c-54.3-3.5-109.9-7.3-163.9-12.7-64.8-6.4-121.8-16.3-174.1-30.2-56.7-15-108.6-36.5-154.4-63.8l-5.2-3.2c-43.8-26.9-85.5-61.3-123.9-102.3-36.9-39.3-72.4-84.6-108.5-138.3-28.1-41.8-55.6-85.4-82.3-128.2l-15.9-25.5c-35.7-57.4-66.3-102.9-95.9-142.7l-4.4-5.8c-36-47.9-74.6-89-114.5-122.3-40.2-33.5-84.7-61.7-124.2-85.8l-8.7-5.3c-46-27.8-91.9-55.3-137.6-82.8l-422.2-252.5-1.3 71.8 529.3 316.6c48.8 29.9 92.5 57.5 133.9 91.9 40.3 33.4 79.4 74.7 116.4 122.7q3 3.9 6 7.8 3 3.9 5.9 7.9 3 3.9 5.9 7.8 2.9 4 5.8 7.9l2.4 3.2c21.8 30 44.9 63.6 70.8 103.2l19.3 29.6c23.1 35.4 47.2 71.8 71.7 107q1.9 2.7 3.7 5.4 1.9 2.6 3.8 5.3 1.8 2.7 3.7 5.3 1.9 2.7 3.8 5.3c36.6 51.6 72.6 95.2 110 133.4 39.9 40.8 83.2 75.1 128.5 102.2 45.3 27.1 96.2 48.9 151.3 64.9 51.5 14.9 107.2 26 170.4 33.9l16.9 2q10.1 1.2 20.3 2.3 5.2 0.6 10.3 1.2 5.2 0.5 10.3 1.1 5.2 0.5 10.4 1 5.1 0.5 10.3 1.1 13.8 1.3 27.7 2.6l11.1 1.1c20.9 1.9 42 3.7 63.3 5.5l9.4 0.8c64 5.7 116.2 11.9 162.7 19.6l6.7 1.1c60.3 10.3 115.7 25.8 164.6 46.2 47.1 19.7 91.5 44.7 131.5 67.9l14.2 8.3 525.6 314.3zm-71.4 39.7l-521.4-311.9c-43.3-25.2-92.4-53.9-144.7-75.7-48.3-20.2-103.1-35.5-162.8-45.6-48-8.2-101.9-14.8-168.7-20.7l-25.3-2.1q-23.6-2.1-47.1-4.2l-5.9-0.6-19.6-1.8-13.6-1.4q-12.3-1.2-24.4-2.5-6-0.6-11.9-1.2-6-0.7-11.9-1.4-6-0.6-11.9-1.3-6-0.7-11.9-1.5l-6.8-0.8c-63.7-7.9-119.8-19.1-171.8-34.1-55.7-16.2-107.3-38.3-153.2-65.7l-5.4-3.3c-43.9-26.9-85.9-60.6-124.8-100.3-37.7-38.5-73.9-82.4-110.8-134.3q-1.6-2.3-3.3-4.6-1.6-2.4-3.2-4.7-1.7-2.3-3.3-4.6-1.6-2.3-3.2-4.7c-26.1-37.4-51.5-75.7-75.7-112.8l-14.7-22.6c-23.1-35.4-44-66.1-63.6-93.5l-3.6-5.1q-3.9-5.4-7.9-10.8-3.9-5.4-7.9-10.8-4-5.3-8-10.7-4.1-5.3-8.1-10.6c-36.7-47.5-75.4-88.4-115.2-121.4-36.4-30.2-74.8-55.2-116.9-81.3l-16-9.9-525.1-314.1-1.3 71.9 494.4 295.7c46.9 28.6 92.4 57.1 134.3 91.1 41 33.3 79.5 72.7 117.9 120.4 30.2 37.6 61 79.4 99.4 134.9l8.7 12.6c33.9 49.2 63.3 91 93.4 131.3l6.3 8.4c37.5 49.7 74.3 91.9 112.5 129.2q1.8 1.7 3.5 3.4 1.8 1.7 3.6 3.4 1.7 1.6 3.5 3.3 1.8 1.7 3.6 3.4l1 0.9c1.5 1.4 3 2.7 4.5 4.1 29.6 26.9 60.8 50.8 92.9 71.4 3.4 2.2 6.9 4.4 10.3 6.5l5.6 3.5 1.2 0.7c45.5 27.1 96 49.5 150.2 66.6 51.1 16 106 28.4 168 38 53.5 8.3 109 14.9 158.6 20.5l23.7 2.7c66.7 7.5 118.2 14.9 165.5 23.7l6.5 1.2c60.6 11.5 114 27.4 163.1 48.5 44.8 19.2 87.5 43.2 126.2 65.7l19 11.1 490.5 293.4zm-205.9 114.1c0 0 63-35 63-35l-451.1-269.8c-47.7-28.1-94.6-55.4-142.6-79.3q-19.5-7.9-39.3-14.9-19.8-7-39.9-13.2-20.1-6.2-40.4-11.5-20.3-5.4-40.9-9.9c-48.7-10.7-102-20-173-30.1l-6.3-0.9c-62.8-9-115.9-17.1-168.7-26.9-61.2-11.4-115.7-25.3-166.7-42.5-54-18.3-104.8-41.5-150.9-69.1l-1.5-0.9c-45.7-27.4-89.6-60.7-130.7-99.1-39.2-36.6-77.1-77.8-115.8-126-36.9-45.9-73-94.4-106.5-139.9l-5.3-7.3c-36.9-50-66.9-88.5-95.6-122.6l-6.2-7.3q-13.5-15.9-27.6-31.2-14.1-15.3-28.8-30-14.8-14.7-30.1-28.8-15.3-14.2-31.2-27.7c-39.9-28.8-81.4-54.7-121.1-78.9l-13.9-8.5-455.5-272.4-1.3 71.9 424.1 253.6 15.4 9.3c38.3 23.2 80.9 49.6 121.8 78.1 43.8 35.3 84.6 73.6 121.6 114.2 31.7 34.8 64.3 73.6 105.1 125.1l12.6 15.9c32.6 41.2 67.3 84.5 102.5 125.5 39.4 46.1 77.8 85.7 117.4 121.1 2.5 2.3 5.1 4.4 7.6 6.6l4.7 4.2c38.1 32.8 78.3 61.8 119.4 86.6l1.2 0.7c34 20.2 70.3 38.4 108.3 54.2q19.3 7.9 39.1 15.1c50.1 18.1 103.4 33.2 163.1 46.3q4.5 1 9.1 1.9 5.9 1.3 11.8 2.6l14.6 3 7.4 1.5 13.7 2.7 8.1 1.6 13.6 2.7 7.4 1.4 14.9 2.8 10.4 1.9 15.5 2.9q9.3 1.7 18.9 3.4l39.2 7c58.9 10.7 105.4 20.5 147.9 31l9.3 2.4c53.6 13.7 107.1 32 159.2 54.5l0.2 0.1c24.2 12.5 47.7 25.5 71.5 39l11 6.4 6.6 3.8 11.1 6.4q3.6 2.1 7.1 4.2 3.5 2 7 4.1 3.5 2 7 4.1 3.6 2.1 7.1 4.1l14.3 8.5zm-469-188.4c-42.2-25.3-87.1-51.7-133-76.6-48.7-22.7-100.6-43-154.1-60.5-50.7-13.7-105.3-26.8-166.9-40l-12-2.6c-48.6-10.5-103.5-22.6-156.6-36-58.9-14.8-111.8-31.3-161.7-50.5-52.5-20.2-102.6-44.4-149-72.1l-1.9-1.1q-6.9-4.2-13.9-8.6l-1.8-1.1c-3.3-2.1-6.7-4.3-10-6.5l-3.9-2.4-3.9-2.5-5.3-3.6c-3.9-2.6-7.8-5.3-11.6-7.9l-5.4-3.9c-3.7-2.6-7.4-5.1-11-7.7q-8.4-6.1-16.7-12.4-8.3-6.3-16.4-12.7-8.2-6.4-16.2-13-8-6.6-15.8-13.4c-40.4-34.7-79.8-73.3-120.6-117.9-30.4-33.3-59.8-67-92.7-105.6l-24.4-28.6c-36.2-42.6-69.5-80.2-101.5-114.6l-7.4-7.8c-40-38.5-81.9-74.4-124.3-106.6-39.3-26.3-79.2-50.9-126.1-79l-396.3-237.1-1.3 71.9 364.1 217.7c41.9 25.1 85.9 51.8 128.6 79.5 43.7 31.4 86.8 66 128.1 102.8 37.7 36.6 76.2 76.1 117.6 121l8.7 9.5c36 38.9 67.3 72.5 99.7 105.9l7.7 8c41.6 42.6 81.6 79.7 122.3 113.3 42.2 34.8 86.4 66.2 131.6 93.4l7.8 4.6c44.1 26 91.6 49.4 141.1 69.5 48.9 19.9 100.8 37.7 158.5 54.2 45.8 13.2 92.2 25.5 137.6 37.3l34.3 8.8c56.6 14.8 107.8 29.6 156.4 45.2 52.4 19.4 103.7 41.5 152.4 65.6l14.4 8.1c42.7 24.1 84.6 49 127.3 74.5l349.6 209.2 63.1-35zm-78.9 117.5c-44-26.3-84.6-50.5-126.1-74.2q-18.2-9.6-36.6-18.7-18.4-9.1-37-17.8-18.6-8.7-37.4-17-18.8-8.3-37.7-16.1c-50.2-18.6-103.7-36.6-158.9-53.5l-51.1-15.6c-14-4.3-28.1-8.6-42.2-13q-7.7-2.4-15.4-4.8-9.2-2.9-18.4-5.8-17.3-5.4-34.4-11c-57.3-18.6-108.6-37.7-156.8-58.4-51.5-22.1-101-47.3-147.1-74.9l-6.3-3.8c-44.2-26.6-87.5-57-129.1-90.1-2.3-1.8-4.6-3.6-6.8-5.4l-5.2-4.2c-34.5-27.9-68.9-58.3-104.8-92.3l-4.2-4-4.3-4c-27.4-26.2-54.7-53.2-81.6-79.8l-38.2-37.9c-40.6-40.3-81.4-78.7-121.1-114q-15.7-12.9-31.6-25.4-16-12.6-32.2-24.8-16.3-12.2-32.8-24.1-16.5-11.8-33.2-23.3c-5.5-3.4-10.9-6.8-16.4-10.2l-12-7.5-12.2-7.5c-31.8-19.5-64.1-38.9-96.9-58.5l-316.4-189.2-1.3 71.9 285.5 170.7c38.8 23.2 82.3 49.2 125.8 75.8l12.5 7.6q17 11.1 33.9 22.6 16.8 11.5 33.5 23.2 16.6 11.8 33 23.9 16.4 12.1 32.6 24.4c40.9 33.5 81.9 68.8 125.4 107.9l23.5 21.5c32.7 30 66.2 60.7 99.6 90.6 44.3 39.5 85.8 74.1 127 105.5q16.3 12.5 32.9 24.4 16.6 12 33.5 23.5 17 11.5 34.2 22.5 17.3 11.1 34.8 21.6c45.9 27.4 94.8 52.9 145.4 75.8 47.2 21.3 97.6 41.6 153.8 62.1 34.4 12.5 69.5 24.8 104 36.9l54 18.8c55.8 20.2 106.7 39.8 155.6 60.2q18.7 8.6 37.3 17.5 18.6 8.9 37 18.2 18.4 9.2 36.6 18.8 18.2 9.6 36.3 19.6 12.4 7.2 24.8 14.5 12.4 7.3 24.7 14.7 12.4 7.3 24.7 14.7 12.4 7.3 24.7 14.7l321.2 192.1 63.1-35zm-1984.2-1196.3c0 0 286.1 171.1 286.1 171.1l49.1 29.4c39.8 23.8 78.8 47.4 117.4 71.6l5.6 3.4q16.9 11.6 33.5 23.5 16.6 11.9 32.9 24.2 16.4 12.3 32.4 25 16.1 12.6 31.9 25.6c39.9 35.5 80.8 73.9 121.6 114.4l37.8 37.6c27 26.6 54.4 53.7 81.8 80q1.9 1.7 3.7 3.4l7.2 6.8c36.4 34.4 71.4 65.1 106.5 93.3l3.6 3 3.7 2.9c43.4 34.5 88.8 66 134.5 93.3 45.8 27.3 95 52.4 146.1 74.3 48 20.7 99.1 39.7 156.2 58.2q8.5 2.8 17 5.5 8.6 2.7 17.1 5.4 8.6 2.8 17.2 5.4 8.5 2.7 17.1 5.4c13.5 4.1 26.9 8.3 40.3 12.4l52.6 16.1c55.4 16.9 109 35 159.4 53.6q19.1 7.9 38.1 16.3 18.9 8.3 37.6 17.1 18.7 8.7 37.2 17.9 18.6 9.2 36.9 18.7l4.8 2.8c34.4 19.8 67.9 39.6 105 61.8l345.9 206.8 63-34.9-345.6-206.7c-47.4-28.3-93.8-56-141.2-82.4-48.3-23.9-99.3-45.9-151.3-65.2-46.3-14.8-95.4-29-149.8-43.3l-13.1-3.4c-51.3-13.3-109.5-28.4-165-44.3-58-16.7-110.1-34.5-159.3-54.5-52.1-21.2-101.9-46-148-73.5l-2.2-1.3c-45.4-27.3-90-59-132.5-94.1-40.9-33.8-81.1-71-122.9-113.9-33.5-34.3-66.8-70-97.4-103l-18.9-20.5c-41.4-44.8-79.7-84.2-117.1-120.6-41-36.5-83.9-70.9-127.2-102.1-46.1-29.9-93.1-58.1-137.1-84.5l-351-209.9zm2.9-162.9l389.9 233.2c51.4 30.7 94.4 57.1 137.1 85.6 42.8 32.5 84.9 68.6 125.4 107.6 33.2 35.3 67.6 74 105.2 117.9l21.7 25.6c31.5 36.9 64.8 75.6 99.3 113.3 40.5 44.3 79.7 82.7 119.9 117.2 42.3 36.4 87 68.8 132.7 96 45.8 27.4 95.5 51.4 147.7 71.5 49.7 19.1 102.3 35.5 160.8 50.2 49.6 12.5 99.8 23.7 147.8 34.1l20.4 4.4c61.8 13.3 116.6 26.4 167.6 40.1 54 17.7 106.2 38.2 155.3 61.1 49 26.4 97.1 54.9 142.1 81.9l384.9 230.2 63-34.9-415.9-248.8c-16.7-9.9-33.4-19.7-50-29.4l-8.6-5-12.7-7.2q-5.4-3.1-10.9-6.2l-6.6-3.8q-6.6-3.6-13.2-7.2l-4.5-2.5q-1.6-0.9-3.3-1.8-1.7-0.9-3.3-1.8-1.7-0.9-3.3-1.8-1.7-0.9-3.4-1.8l-4.5-2.5c-3.3-1.7-6.6-3.5-9.9-5.2l-7.9-4.1c-51.7-22.4-104.8-40.5-157.8-54.1-44.8-11.4-93.6-21.7-156.7-33.2l-36.4-6.5-21-3.8-20.6-3.8-12.5-2.4-13.5-2.5-13.1-2.6-11.1-2.1-13.5-2.7q-7.6-1.6-15.1-3.1l-7.1-1.5-16.4-3.5-4.6-1c-60.1-13.1-113.8-28.4-164.1-46.6q-5-1.8-9.9-3.6-5-1.9-9.9-3.8-4.9-1.9-9.8-3.9-4.9-1.9-9.8-3.9c-38.5-16-75.1-34.3-109.4-54.8l-2-1.1-5.9-3.6c-37.7-23-74.3-49.7-109.2-79.4l-1.2-1c-3.1-2.7-6.2-5.4-9.3-8.1-2.2-1.9-4.4-3.8-6.6-5.8-39.8-35.7-78.5-75.5-118.2-121.8-32.7-38.2-65.1-78.4-95.7-117l-22.2-28.1c-37.8-47.5-68.5-84.1-98-116.7l-4.2-4.6c-36.6-40.2-77.2-78.3-120.4-113.1-40.5-28.2-82.9-54.6-121-77.7l-15.5-9.3-419.9-251.1zm4.1-234.9l-1.3 71.9 459.7 274.9c43.9 26.7 90.6 55.4 135.8 88q16.1 13.6 31.5 27.9 15.5 14.2 30.4 29.1 14.9 14.9 29.1 30.3 14.3 15.5 27.9 31.5c32.1 37.8 65.3 80.2 107.5 137.7l6.7 9.1c31.7 42.9 65.4 88 99.6 130.5 38.5 47.9 76.1 88.9 115 125.2q3.2 3 6.5 6 3.3 3 6.6 5.9 3.3 3 6.7 5.9 3.3 2.9 6.7 5.8c1.5 1.3 3.1 2.7 4.6 4l9.3 7.7c23.7 19.3 48.1 37 73 52.9q0.4 0.2 0.8 0.5 0.3 0.2 0.7 0.4 0.4 0.3 0.7 0.5 0.4 0.2 0.8 0.5l5.9 3.6c2.5 1.5 4.9 3.1 7.4 4.6l1 0.6c45.7 27.3 95.9 50.3 149.4 68.3 50.5 17.1 104.7 30.9 165.5 42.2 51.5 9.6 104.1 17.6 151.5 24.4l36.5 5.3c61.5 9 109.7 17.4 154 26.9l6.3 1.4q20.7 4.5 41.2 9.9 20.5 5.4 40.8 11.7 20.3 6.2 40.3 13.3 20 7.1 39.7 15c43.4 21.7 84.5 45.2 128.7 71.2l14.9 8.7 455.2 272.3 63-34.9-486.2-290.8c-43.3-25.4-92.3-54.1-144.3-76.4-48.6-20.9-101.4-36.6-161.4-48-47.7-9.1-99.4-16.6-166.8-24.3l-41.3-4.7c-46.3-5.3-96.9-11.5-145.8-19-62.4-9.7-117.8-22.2-169.2-38.4-54.9-17.2-106-39.8-152.1-67.4l-4.9-3c-4.2-2.6-8.4-5.2-12.6-7.9-27.1-17.3-53.4-37-78.7-58.8l-3.8-3.3c-2.1-1.8-4.1-3.6-6.2-5.5-8.4-7.5-16.8-15.2-25-23.2-38.5-37.6-75.6-80.1-113.3-130.2-29.3-38.8-57.5-78.6-89.5-124.8l-19.1-27.7c-36.6-52.9-66.3-93.3-95.1-129.4l-4-5c-37.9-47.2-76.1-86.2-116.6-119.1-41.4-33.7-86.7-62-133.3-90.5zm574.3-160.1l36.6 22.1c33.6 20.2 67.3 40.6 100.9 61 44.1 26.8 91 56.2 135.5 88.7 44.9 33.2 86.1 71.1 122.4 112.7 35.1 40.2 69.5 86.6 105.3 141.9 15.6 24.2 31.2 49.1 46.6 73.7l27 43.4q3 4.7 5.9 9.4 3 4.8 6 9.5 2.9 4.7 5.9 9.5 3 4.7 5.9 9.4c36.1 57.2 70.1 104.1 104.1 143.4 38.2 44.3 80 80.3 124.4 106.9l4.3 2.6c43.8 25.6 94.5 44.9 150.6 57.4 44.5 9.9 94.3 17.1 151.5 21.9q3.2 0.3 6.3 0.5 3.1 0.3 6.2 0.5 3.1 0.3 6.2 0.5 3.2 0.2 6.3 0.5l35.9 2.4 57.2 3.7c30.2 2 60.8 4.2 90.8 6.7 66.2 5.5 123.9 14.1 176.3 26.4 54.1 12.7 107.5 31.6 158.5 56.1 43.8 21.3 85.4 44.6 133.2 72.5l10.7 6.3 32.1 18.9 47.5 28.1q30.3 18 60.5 35.9l459.8 275.1 1.3-72-441.9-264.2c-42.3-25-84.6-50.1-127-75.2l-15.4-9c-40.5-23.7-83.6-48.2-127.7-70.6-50.2-25.4-102-45.9-153.8-60.7-51.6-14.8-107.4-25.8-170.5-33.6-39.5-4.9-80.1-8.9-120-12.8l-60.3-5.7c-69.1-6.6-124.9-15.3-175.7-27.4-58-13.8-110.5-34.5-155.9-61.7l-4.6-2.8c-43.7-26.8-85.1-62.1-123.3-105-32.3-36.4-65.3-79.7-100.7-132.2l-6-8.9q-9.2-13.8-18.4-27.7l-16.2-24.2c-21.6-32.5-43.8-65.5-66.1-97.1-36.4-51.7-72-95.4-108.8-133.7q-7.1-7.3-14.3-14.4-7.2-7.1-14.6-14.1-7.4-6.9-14.9-13.7-7.6-6.8-15.3-13.4-7.8-6.7-15.8-13.2-8.1-6.5-16.2-12.9-8.2-6.3-16.5-12.5-8.3-6.2-16.7-12.1-8.4-5.9-16.7-11.6c-39.7-27-80.5-52.3-119-75.7l-37.2-22.5-30.5-18.5-69.6-41.9-439.9-263.2-63 35c0 0 470.8 281.6 470.8 281.6z"/>
</svg>